<?xml version="1.0" encoding="UTF-8" standalone="no"?>
<!DOCTYPE svg PUBLIC "-//W3C//DTD SVG 1.1//EN"
 "http://www.w3.org/Graphics/SVG/1.1/DTD/svg11.dtd">
<!-- Generated by graphviz version 2.43.0 (0)
 -->
<!-- Title: mention_trigger Pages: 1 -->
<svg width="990pt" height="722pt"
 viewBox="0.00 0.00 990.00 722.00" xmlns="http://www.w3.org/2000/svg" xmlns:xlink="http://www.w3.org/1999/xlink">
<g id="graph0" class="graph" transform="scale(1 1) rotate(0) translate(4 718)">
<title>mention_trigger</title>
<polygon fill="white" stroke="transparent" points="-4,4 -4,-718 986,-718 986,4 -4,4"/>
<text text-anchor="start" x="389.5" y="-699.8" font-family="Helvetica,sans-Serif" font-weight="bold" font-size="14.00">Mention Trigger Workflow</text>
<text text-anchor="start" x="299.5" y="-685.8" font-family="Helvetica,sans-Serif" font-size="14.00">Entry point for AI agent activation via GitHub mentions</text>
<!-- mention -->
<g id="node1" class="node">
<title>mention</title>
<path fill="#90ee90" stroke="black" d="M646.5,-674C646.5,-674 580.5,-674 580.5,-674 574.5,-674 568.5,-668 568.5,-662 568.5,-662 568.5,-646 568.5,-646 568.5,-640 574.5,-634 580.5,-634 580.5,-634 646.5,-634 646.5,-634 652.5,-634 658.5,-640 658.5,-646 658.5,-646 658.5,-662 658.5,-662 658.5,-668 652.5,-674 646.5,-674"/>
<path fill="none" stroke="black" d="M650.5,-678C650.5,-678 576.5,-678 576.5,-678 570.5,-678 564.5,-672 564.5,-666 564.5,-666 564.5,-642 564.5,-642 564.5,-636 570.5,-630 576.5,-630 576.5,-630 650.5,-630 650.5,-630 656.5,-630 662.5,-636 662.5,-642 662.5,-642 662.5,-666 662.5,-666 662.5,-672 656.5,-678 650.5,-678"/>
<text text-anchor="middle" x="613.5" y="-651.2" font-family="Helvetica,sans-Serif" font-size="11.00">mention</text>
</g>
<!-- mention_trigger -->
<g id="node2" class="node">
<title>mention_trigger</title>
<path fill="#90ee90" stroke="black" d="M666.5,-557C666.5,-557 560.5,-557 560.5,-557 554.5,-557 548.5,-551 548.5,-545 548.5,-545 548.5,-529 548.5,-529 548.5,-523 554.5,-517 560.5,-517 560.5,-517 666.5,-517 666.5,-517 672.5,-517 678.5,-523 678.5,-529 678.5,-529 678.5,-545 678.5,-545 678.5,-551 672.5,-557 666.5,-557"/>
<text text-anchor="middle" x="613.5" y="-534.2" font-family="Helvetica,sans-Serif" font-size="11.00">mention trigger</text>
</g>
<!-- mention&#45;&gt;mention_trigger -->
<g id="edge1" class="edge">
<title>mention&#45;&gt;mention_trigger</title>
<path fill="none" stroke="#333333" d="M613.5,-629.73C613.5,-611.09 613.5,-584.91 613.5,-565.29"/>
<polygon fill="#333333" stroke="#333333" points="616.3,-565.05 613.5,-557.05 610.7,-565.05 616.3,-565.05"/>
</g>
<!-- RDIS -->
<g id="node3" class="node">
<title>RDIS</title>
<polygon fill="#ffb6c1" stroke="black" points="613.5,-444 451.5,-394 613.5,-344 775.5,-394 613.5,-444"/>
<text text-anchor="middle" x="613.5" y="-397" font-family="Helvetica,sans-Serif" font-size="10.00">RDIS</text>
<text text-anchor="middle" x="613.5" y="-386" font-family="Helvetica,sans-Serif" font-size="10.00">(Rule&#45;based Dispatcher)</text>
</g>
<!-- mention_trigger&#45;&gt;RDIS -->
<g id="edge2" class="edge">
<title>mention_trigger&#45;&gt;RDIS</title>
<path fill="none" stroke="#333333" d="M613.5,-516.98C613.5,-500.38 613.5,-475.38 613.5,-452.34"/>
<polygon fill="#333333" stroke="#333333" points="616.3,-452.29 613.5,-444.29 610.7,-452.29 616.3,-452.29"/>
</g>
<!-- AIDIS -->
<g id="node4" class="node">
<title>AIDIS</title>
<polygon fill="#add8e6" stroke="black" points="493.5,-252 343.5,-202 493.5,-152 643.5,-202 493.5,-252"/>
<text text-anchor="middle" x="493.5" y="-205" font-family="Helvetica,sans-Serif" font-size="10.00">AIDIS</text>
<text text-anchor="middle" x="493.5" y="-194" font-family="Helvetica,sans-Serif" font-size="10.00">(AI&#45;based Dispatcher)</text>
</g>
<!-- RDIS&#45;&gt;AIDIS -->
<g id="edge5" class="edge">
<title>RDIS&#45;&gt;AIDIS</title>
<path fill="none" stroke="#333333" d="M587.46,-351.77C568.62,-321.94 543.12,-281.56 523.44,-250.4"/>
<polygon fill="#333333" stroke="#333333" points="525.71,-248.76 519.08,-243.49 520.98,-251.75 525.71,-248.76"/>
<text text-anchor="middle" x="586.5" y="-300.8" font-family="Helvetica,sans-Serif" font-size="9.00" fill="#333333">no decision /</text>
<text text-anchor="middle" x="586.5" y="-290.8" font-family="Helvetica,sans-Serif" font-size="9.00" fill="#333333">fallback</text>
</g>
<!-- skip -->
<g id="node5" class="node">
<title>skip</title>
<path fill="#add8e6" stroke="black" d="M842.5,-222C842.5,-222 800.5,-222 800.5,-222 794.5,-222 788.5,-216 788.5,-210 788.5,-210 788.5,-194 788.5,-194 788.5,-188 794.5,-182 800.5,-182 800.5,-182 842.5,-182 842.5,-182 848.5,-182 854.5,-188 854.5,-194 854.5,-194 854.5,-210 854.5,-210 854.5,-216 848.5,-222 842.5,-222"/>
<text text-anchor="middle" x="821.5" y="-199.2" font-family="Helvetica,sans-Serif" font-size="11.00">skip</text>
</g>
<!-- RDIS&#45;&gt;skip -->
<g id="edge3" class="edge">
<title>RDIS&#45;&gt;skip</title>
<path fill="none" stroke="#666666" d="M653.6,-356.37C695.12,-318.45 758.81,-260.27 794.63,-227.55"/>
<polygon fill="#666666" stroke="#666666" points="796.54,-229.59 800.56,-222.13 792.76,-225.46 796.54,-229.59"/>
<text text-anchor="middle" x="753.5" y="-295.8" font-family="Helvetica,sans-Serif" font-size="9.00" fill="#666666">covered case</text>
</g>
<!-- reply_directly -->
<g id="node7" class="node">
<title>reply_directly</title>
<path fill="#98fb98" stroke="black" d="M151,-50C151,-50 16,-50 16,-50 10,-50 4,-44 4,-38 4,-38 4,-22 4,-22 4,-16 10,-10 16,-10 16,-10 151,-10 151,-10 157,-10 163,-16 163,-22 163,-22 163,-38 163,-38 163,-44 157,-50 151,-50"/>
<path fill="none" stroke="black" d="M155,-54C155,-54 12,-54 12,-54 6,-54 0,-48 0,-42 0,-42 0,-18 0,-18 0,-12 6,-6 12,-6 12,-6 155,-6 155,-6 161,-6 167,-12 167,-18 167,-18 167,-42 167,-42 167,-48 161,-54 155,-54"/>
<text text-anchor="middle" x="83.5" y="-27.2" font-family="Helvetica,sans-Serif" font-size="11.00">AIDIS replies directly</text>
</g>
<!-- AIDIS&#45;&gt;reply_directly -->
<g id="edge6" class="edge">
<title>AIDIS&#45;&gt;reply_directly</title>
<path fill="none" stroke="#006600" d="M427.63,-173.69C350.26,-141.61 222.85,-88.78 146.68,-57.19"/>
<polygon fill="#006600" stroke="#006600" points="147.48,-54.5 139.01,-54.02 145.33,-59.67 147.48,-54.5"/>
<text text-anchor="middle" x="323.5" y="-103.8" font-family="Helvetica,sans-Serif" font-size="9.00" fill="#006600">reply comment</text>
</g>
<!-- worker_fsa -->
<g id="node8" class="node">
<title>worker_fsa</title>
<path fill="#98fb98" stroke="black" d="M349.5,-50C349.5,-50 241.5,-50 241.5,-50 235.5,-50 229.5,-44 229.5,-38 229.5,-38 229.5,-22 229.5,-22 229.5,-16 235.5,-10 241.5,-10 241.5,-10 349.5,-10 349.5,-10 355.5,-10 361.5,-16 361.5,-22 361.5,-22 361.5,-38 361.5,-38 361.5,-44 355.5,-50 349.5,-50"/>
<path fill="none" stroke="black" d="M353.5,-54C353.5,-54 237.5,-54 237.5,-54 231.5,-54 225.5,-48 225.5,-42 225.5,-42 225.5,-18 225.5,-18 225.5,-12 231.5,-6 237.5,-6 237.5,-6 353.5,-6 353.5,-6 359.5,-6 365.5,-12 365.5,-18 365.5,-18 365.5,-42 365.5,-42 365.5,-48 359.5,-54 353.5,-54"/>
<text text-anchor="middle" x="295.5" y="-27.2" font-family="Helvetica,sans-Serif" font-size="11.00">start worker fsa</text>
</g>
<!-- AIDIS&#45;&gt;worker_fsa -->
<g id="edge7" class="edge">
<title>AIDIS&#45;&gt;worker_fsa</title>
<path fill="none" stroke="#006600" d="M451.99,-165.36C415.27,-133.83 362.39,-88.43 328.49,-59.33"/>
<polygon fill="#006600" stroke="#006600" points="330.28,-57.17 322.39,-54.09 326.64,-61.42 330.28,-57.17"/>
<text text-anchor="middle" x="437" y="-103.8" font-family="Helvetica,sans-Serif" font-size="9.00" fill="#006600">implement feature</text>
</g>
<!-- review_fsa -->
<g id="node9" class="node">
<title>review_fsa</title>
<path fill="#98fb98" stroke="black" d="M547.5,-50C547.5,-50 439.5,-50 439.5,-50 433.5,-50 427.5,-44 427.5,-38 427.5,-38 427.5,-22 427.5,-22 427.5,-16 433.5,-10 439.5,-10 439.5,-10 547.5,-10 547.5,-10 553.5,-10 559.5,-16 559.5,-22 559.5,-22 559.5,-38 559.5,-38 559.5,-44 553.5,-50 547.5,-50"/>
<path fill="none" stroke="black" d="M551.5,-54C551.5,-54 435.5,-54 435.5,-54 429.5,-54 423.5,-48 423.5,-42 423.5,-42 423.5,-18 423.5,-18 423.5,-12 429.5,-6 435.5,-6 435.5,-6 551.5,-6 551.5,-6 557.5,-6 563.5,-12 563.5,-18 563.5,-18 563.5,-42 563.5,-42 563.5,-48 557.5,-54 551.5,-54"/>
<text text-anchor="middle" x="493.5" y="-27.2" font-family="Helvetica,sans-Serif" font-size="11.00">start review fsa</text>
</g>
<!-- AIDIS&#45;&gt;review_fsa -->
<g id="edge8" class="edge">
<title>AIDIS&#45;&gt;review_fsa</title>
<path fill="none" stroke="#006600" d="M493.5,-151.83C493.5,-122.93 493.5,-87.27 493.5,-62.21"/>
<polygon fill="#006600" stroke="#006600" points="496.3,-62.14 493.5,-54.14 490.7,-62.14 496.3,-62.14"/>
<text text-anchor="middle" x="515" y="-103.8" font-family="Helvetica,sans-Serif" font-size="9.00" fill="#006600">review pr</text>
</g>
<!-- tech_debt_fsa -->
<g id="node10" class="node">
<title>tech_debt_fsa</title>
<path fill="#ffe4e1" stroke="black" d="M761,-56C761,-56 638,-56 638,-56 632,-56 626,-50 626,-44 626,-44 626,-16 626,-16 626,-10 632,-4 638,-4 638,-4 761,-4 761,-4 767,-4 773,-10 773,-16 773,-16 773,-44 773,-44 773,-50 767,-56 761,-56"/>
<path fill="none" stroke="black" d="M765,-60C765,-60 634,-60 634,-60 628,-60 622,-54 622,-48 622,-48 622,-12 622,-12 622,-6 628,0 634,0 634,0 765,0 765,0 771,0 777,-6 777,-12 777,-12 777,-48 777,-48 777,-54 771,-60 765,-60"/>
<text text-anchor="middle" x="699.5" y="-33.2" font-family="Helvetica,sans-Serif" font-size="11.00">start tech debt fsa</text>
<text text-anchor="middle" x="699.5" y="-21.2" font-family="Helvetica,sans-Serif" font-size="11.00">[NI]</text>
</g>
<!-- AIDIS&#45;&gt;tech_debt_fsa -->
<g id="edge9" class="edge">
<title>AIDIS&#45;&gt;tech_debt_fsa</title>
<path fill="none" stroke="#cc0000" d="M536.18,-165.78C571.8,-136.39 622.26,-94.74 657.64,-65.54"/>
<polygon fill="#cc0000" stroke="#cc0000" points="659.68,-67.49 664.07,-60.24 656.11,-63.17 659.68,-67.49"/>
<text text-anchor="middle" x="648.5" y="-108.8" font-family="Helvetica,sans-Serif" font-size="9.00" fill="#cc0000">technical debt</text>
<text text-anchor="middle" x="648.5" y="-98.8" font-family="Helvetica,sans-Serif" font-size="9.00" fill="#cc0000">analysis</text>
</g>
<!-- workflow_skipped -->
<g id="node6" class="node">
<title>workflow_skipped</title>
<path fill="#ffe4e1" stroke="black" d="M966,-56C966,-56 851,-56 851,-56 845,-56 839,-50 839,-44 839,-44 839,-16 839,-16 839,-10 845,-4 851,-4 851,-4 966,-4 966,-4 972,-4 978,-10 978,-16 978,-16 978,-44 978,-44 978,-50 972,-56 966,-56"/>
<path fill="none" stroke="black" d="M970,-60C970,-60 847,-60 847,-60 841,-60 835,-54 835,-48 835,-48 835,-12 835,-12 835,-6 841,0 847,0 847,0 970,0 970,0 976,0 982,-6 982,-12 982,-12 982,-48 982,-48 982,-54 976,-60 970,-60"/>
<text text-anchor="middle" x="908.5" y="-33.2" font-family="Helvetica,sans-Serif" font-size="11.00">workflow skipped</text>
<text text-anchor="middle" x="908.5" y="-21.2" font-family="Helvetica,sans-Serif" font-size="11.00">[NI]</text>
</g>
<!-- skip&#45;&gt;workflow_skipped -->
<g id="edge4" class="edge">
<title>skip&#45;&gt;workflow_skipped</title>
<path fill="none" stroke="#cc0000" d="M831.31,-181.83C845.5,-154.1 872.01,-102.3 889.96,-67.23"/>
<polygon fill="#cc0000" stroke="#cc0000" points="892.5,-68.42 893.65,-60.02 887.51,-65.87 892.5,-68.42"/>
<text text-anchor="middle" x="877.5" y="-103.8" font-family="Helvetica,sans-Serif" font-size="9.00" fill="#cc0000">NI</text>
</g>
</g>
</svg>
